<svg xmlns="http://www.w3.org/2000/svg" version="1.1" xmlns:xlink="http://www.w3.org/1999/xlink" xmlns:svgjs="http://svgjs.dev/svgjs" width="1000" height="623" viewBox="0 0 1000 623"><g transform="matrix(1,0,0,1,-0.6060606060606233,0.2522267206477409)"><svg viewBox="0 0 396 247" data-background-color="#ffffff" preserveAspectRatio="xMidYMid meet" height="623" width="1000" xmlns="http://www.w3.org/2000/svg" xmlns:xlink="http://www.w3.org/1999/xlink"><g id="tight-bounds" transform="matrix(1,0,0,1,0.2400000000000091,-0.09999999999999432)"><svg viewBox="0 0 395.52 247.2" height="247.2" width="395.52"><g><svg></svg></g><g><svg viewBox="0 0 395.52 247.2" height="247.2" width="395.52"><g transform="matrix(1,0,0,1,132.77742245706736,47.215199999999996)"><svg viewBox="0 0 129.96515508586526 152.7696" height="152.7696" width="129.96515508586526"><g><svg viewBox="0 0 129.96515508586526 152.7696" height="152.7696" width="129.96515508586526"><g><svg viewBox="0 0 129.96515508586526 152.7696" height="152.7696" width="129.96515508586526"><g><svg viewBox="0 0 129.96515508586526 152.7696" height="152.7696" width="129.96515508586526"><g id="textblocktransform"><svg viewBox="0 0 129.96515508586526 152.7696" height="152.7696" width="129.96515508586526" id="textblock"><g><svg viewBox="0 0 129.96515508586526 152.7696" height="152.7696" width="129.96515508586526"><g transform="matrix(1,0,0,1,0,0)"><svg width="129.96515508586526" viewBox="3.85 -37.3 32.199999999999996 37.85" height="152.7696" data-palette-color="#ff0000"><path d="M36.05-5.3Q36.05-2.75 34.43-1.1 32.8 0.55 30.78 0.55 28.75 0.55 27.08-0.7 25.4-1.95 22.55-5.1L22.55-5.1 13.4-15.35 13.4-5.15Q13.4-2.45 15-1.6L15-1.6Q13.1 0.55 10.5 0.55 7.9 0.55 6.7-0.9 5.5-2.35 5.5-5.4L5.5-5.4 5.5-31.7Q5.5-34.3 3.85-35.15L3.85-35.15Q5.65-37.3 8.4-37.3L8.4-37.3Q13.4-37.3 13.4-31.4L13.4-31.4 13.4-21.65 22.9-32.65Q25.2-35.3 26.78-36.3 28.35-37.3 30.55-37.3 32.75-37.3 34.2-35.77 35.65-34.25 35.75-31.9L35.75-31.9Q35.4-31.95 35.05-31.95L35.05-31.95Q33.45-31.95 31.9-30.6L31.9-30.6 19.85-19.55 30.85-7.8Q33.25-5.3 35.7-5.3L35.7-5.3 36.05-5.3Z" opacity="1" transform="matrix(1,0,0,1,0,0)" fill="#ff0000" class="wordmark-text-0" data-fill-palette-color="primary" id="text-0"></path></svg></g></svg></g></svg></g></svg></g></svg></g></svg></g></svg></g><path d="M315.079 41.215L315.079 0 67.879 0 67.879 247.2 315.079 247.2 315.079 205.985 301.302 205.985 301.302 233.423 81.656 233.423 81.656 13.777 301.302 13.777 301.302 41.215Z" fill="#ff0000" stroke="transparent" data-fill-palette-color="primary"></path></svg></g><defs></defs></svg><rect width="395.52" height="247.2" fill="none" stroke="none" visibility="hidden"></rect></g></svg></g></svg>